<svg width="42" height="18" viewBox="0 0 42 18" fill="none" xmlns="http://www.w3.org/2000/svg">
<path fill-rule="evenodd" clip-rule="evenodd" d="M8.30239 2.41337C7.83085 3.01292 7.07639 3.4858 6.32193 3.41825C6.22762 2.60759 6.59699 1.74626 7.02924 1.21426C7.50078 0.597825 8.32597 0.158717 8.99398 0.124939C9.07257 0.969378 8.76607 1.79693 8.30239 2.41337ZM8.98605 3.57865C8.32138 3.53754 7.7149 3.79343 7.22503 4.00011C6.90979 4.13312 6.64284 4.24575 6.43974 4.24575C6.21183 4.24575 5.93385 4.1271 5.62175 3.99387C5.2128 3.81931 4.74525 3.61973 4.25495 3.62931C3.13111 3.6462 2.08587 4.3302 1.51216 5.41952C0.333318 7.59817 1.20566 10.8239 2.34522 12.5972C2.9032 13.4755 3.57122 14.4381 4.45142 14.4043C4.83866 14.3886 5.11721 14.2616 5.40549 14.1302C5.73738 13.9789 6.08216 13.8217 6.6205 13.8217C7.14018 13.8217 7.46987 13.9748 7.78636 14.1217C8.08729 14.2615 8.37628 14.3957 8.80529 14.3875C9.71693 14.3706 10.2906 13.5092 10.8486 12.631C11.4508 11.6885 11.7154 10.7686 11.7556 10.629L11.7603 10.6128C11.7593 10.6118 11.7519 10.6081 11.7387 10.6017C11.5374 10.5026 9.9989 9.74583 9.98414 7.71639C9.96932 6.01297 11.2045 5.14991 11.3989 5.01405C11.4107 5.00578 11.4187 5.00021 11.4223 4.9973C10.6364 3.74753 9.41043 3.61242 8.98605 3.57865ZM15.2969 14.2946V1.12979H19.8944C22.2678 1.12979 23.926 2.88622 23.926 5.45331C23.926 8.0204 22.2363 9.79372 19.8315 9.79372H17.1987V14.2946H15.2969ZM17.1986 2.85253H19.3912C21.0416 2.85253 21.9847 3.7983 21.9847 5.46185C21.9847 7.12539 21.0416 8.0796 19.3834 8.0796H17.1986V2.85253ZM30.2054 12.7154C29.7025 13.7457 28.5943 14.3959 27.3998 14.3959C25.6315 14.3959 24.3976 13.2643 24.3976 11.5586C24.3976 9.86969 25.5922 8.89859 27.8006 8.75503L30.174 8.60303V7.87682C30.174 6.80438 29.5217 6.22172 28.3586 6.22172C27.3998 6.22172 26.7003 6.75371 26.5589 7.56437H24.8456C24.9006 5.85861 26.3938 4.61729 28.4136 4.61729C30.5905 4.61729 32.0051 5.84172 32.0051 7.74171V14.2945H30.2447V12.7154H30.2054ZM27.9105 12.8338C26.8967 12.8338 26.2523 12.3102 26.2523 11.508C26.2523 10.6804 26.8731 10.1991 28.0598 10.1231L30.1739 9.97956V10.7227C30.1739 11.9555 29.1994 12.8338 27.9105 12.8338ZM37.8443 14.8097C37.082 17.115 36.2096 17.875 34.3549 17.875C34.2134 17.875 33.7419 17.8581 33.6319 17.8243V16.2452C33.7498 16.2621 34.0405 16.279 34.1899 16.279C35.0308 16.279 35.5023 15.899 35.7931 14.911L35.966 14.3284L32.7438 4.744H34.7321L36.9719 12.5213H37.0112L39.251 4.744H41.1844L37.8443 14.8097Z" fill="black"/>
</svg>
