<svg width="46" height="20" viewBox="0 0 46 20" fill="none" xmlns="http://www.w3.org/2000/svg">
<path fill-rule="evenodd" clip-rule="evenodd" d="M21.2203 15.3433V9.78699H24.0248C25.174 9.78699 26.1439 9.39323 26.9347 8.61666L27.1244 8.41978C28.5688 6.81194 28.4739 4.30722 26.9347 2.8197C26.165 2.03219 25.1107 1.60562 24.0248 1.62749H19.5229V15.3433H21.2203ZM21.2206 8.10247V3.31177H24.0676C24.6792 3.31177 25.2592 3.5524 25.6915 3.98991C26.6089 4.90867 26.63 6.43994 25.7442 7.39152C25.3119 7.86184 24.7003 8.12434 24.0676 8.10247H21.2206Z" fill="#3C4043"/>
<path fill-rule="evenodd" clip-rule="evenodd" d="M35.0423 6.69155C34.3148 6.00247 33.3238 5.65247 32.0691 5.65247C30.4561 5.65247 29.2436 6.26498 28.4424 7.47906L29.9395 8.45251C30.4877 7.62125 31.2362 7.20561 32.1851 7.20561C32.7861 7.20561 33.3659 7.43531 33.8193 7.85094C34.2621 8.24469 34.5151 8.81345 34.5151 9.41502V9.81972C33.8615 9.44784 33.0391 9.25096 32.027 9.25096C30.8462 9.25096 29.8973 9.53534 29.1909 10.115C28.4845 10.6947 28.1261 11.4604 28.1261 12.4338C28.105 13.3198 28.474 14.162 29.1276 14.7307C29.7919 15.3432 30.6353 15.6495 31.6263 15.6495C32.7966 15.6495 33.7244 15.1135 34.4308 14.0417H34.5046V15.3432H36.1282V9.55721C36.1282 8.34313 35.7697 7.38062 35.0423 6.69155ZM30.4353 13.6151C30.0873 13.3526 29.8764 12.9261 29.8764 12.4667C29.8764 11.9526 30.1084 11.526 30.5618 11.187C31.0258 10.8479 31.6057 10.6729 32.2911 10.6729C33.2402 10.662 33.9783 10.8807 34.5055 11.3182C34.5055 12.062 34.2208 12.7073 33.662 13.2542C33.1558 13.7792 32.4704 14.0745 31.7534 14.0745C31.2789 14.0854 30.8149 13.9214 30.4353 13.6151Z" fill="#3C4043"/>
<path d="M39.7761 19.4667L45.4483 5.95871H43.6032L40.978 12.6963H40.9464L38.2579 5.95871H36.4129L40.1346 14.7416L38.026 19.4667H39.7761Z" fill="#3C4043"/>
<path d="M15.3602 8.58389C15.3602 8.04795 15.318 7.512 15.2337 6.98699H8.07499V10.0167H12.1762C12.0075 10.9902 11.4593 11.8652 10.658 12.4121V14.3809H13.104C14.5379 13.0136 15.3602 10.9902 15.3602 8.58389Z" fill="#4285F4"/>
<path d="M8.07528 16.2841C10.1206 16.2841 11.8494 15.584 13.104 14.3809L10.658 12.4121C9.97274 12.8933 9.09796 13.1668 8.07528 13.1668C6.0932 13.1668 4.41686 11.7778 3.81591 9.91836H1.29612V11.9528C2.58237 14.6106 5.20758 16.2841 8.07528 16.2841Z" fill="#34A853"/>
<path d="M3.81591 9.91836C3.49956 8.94491 3.49986 7.88391 3.81621 6.89952V4.87605H1.29602C0.209919 7.0964 0.209919 9.72143 1.29602 11.9418L3.81591 9.91836Z" fill="#FBBC04"/>
<path d="M8.07528 3.65104C9.16121 3.62916 10.205 4.05573 10.9852 4.8323L13.157 2.57914C11.7759 1.24475 9.96248 0.511926 8.07528 0.533801C5.20758 0.533801 2.58227 2.2182 1.29602 4.87605L3.8159 6.91046C4.41686 5.04012 6.0932 3.65104 8.07528 3.65104Z" fill="#EA4335"/>
</svg>
