<svg width="31" height="20" viewBox="0 0 31 20" fill="none" xmlns="http://www.w3.org/2000/svg">
<path d="M19.5433 2.52505H11.2239V17.4749H19.5433V2.52505Z" fill="#FF5F00"/>
<path d="M11.7521 10C11.7508 8.56022 12.0771 7.13901 12.7063 5.84396C13.3354 4.54891 14.251 3.41397 15.3836 2.52506C13.981 1.4226 12.2965 0.736995 10.5226 0.546611C8.74877 0.356227 6.95713 0.668736 5.35249 1.44843C3.74785 2.22813 2.39496 3.44356 1.44845 4.95578C0.501935 6.468 0 8.216 0 10C0 11.784 0.501935 13.532 1.44845 15.0442C2.39496 16.5564 3.74785 17.7719 5.35249 18.5516C6.95713 19.3313 8.74877 19.6438 10.5226 19.4534C12.2965 19.263 13.981 18.5774 15.3836 17.4749C14.251 16.586 13.3354 15.4511 12.7063 14.156C12.0771 12.861 11.7508 11.4398 11.7521 10Z" fill="#EB001B"/>
<path d="M30.7668 10C30.7668 11.784 30.2649 13.532 29.3185 15.0442C28.372 16.5564 27.0192 17.7718 25.4146 18.5515C23.81 19.3313 22.0183 19.6438 20.2445 19.4534C18.4707 19.263 16.7862 18.5774 15.3836 17.4749C16.5153 16.5851 17.4301 15.45 18.0592 14.1552C18.6882 12.8603 19.0151 11.4396 19.0151 10C19.0151 8.56045 18.6882 7.13968 18.0592 5.84483C17.4301 4.54999 16.5153 3.41487 15.3836 2.52506C16.7862 1.4226 18.4707 0.73699 20.2445 0.546608C22.0183 0.356226 23.81 0.66875 25.4146 1.44846C27.0192 2.22816 28.372 3.44359 29.3185 4.95581C30.2649 6.46803 30.7668 8.21603 30.7668 10Z" fill="#F79E1B"/>
<path d="M29.8596 15.8915V15.5855H29.9831V15.5231H29.6687V15.5855H29.7922V15.8915H29.8596ZM30.4699 15.8915V15.5225H30.3735L30.2627 15.7763L30.1519 15.5225H30.0555V15.8915H30.1235V15.6132L30.2274 15.8532H30.298L30.4019 15.6126V15.8915H30.4699Z" fill="#F79E1B"/>
</svg>
