<svg width="63" height="18" viewBox="0 0 63 18" fill="none" xmlns="http://www.w3.org/2000/svg">
<path d="M8.61349 5.15548C8.38734 6.8516 7.03045 6.8516 5.78663 6.8516H5.10818L5.67355 3.57244C5.67355 3.34629 5.89969 3.23322 6.12584 3.23322H6.46508C7.36968 3.23322 8.16119 3.23322 8.61349 3.68552C8.61349 4.13781 8.61349 4.59011 8.61349 5.15548ZM8.04812 0.632507H3.18592C2.84669 0.632507 2.62056 0.858656 2.50748 1.19788L0.585205 13.6361C0.585205 13.8622 0.69829 14.0884 1.03751 14.0884H3.299C3.63822 14.0884 3.86436 13.8622 3.97743 13.523L4.54281 10.1308C4.54281 9.79153 4.88203 9.56538 5.22126 9.56538H6.80429C9.97037 9.56538 11.7796 7.98234 12.3449 4.92933C12.5711 3.57244 12.3449 2.55477 11.7796 1.76325C10.875 1.0848 9.63116 0.632507 8.04812 0.632507Z" fill="#263577"/>
<path d="M19.2417 9.67851C19.0156 11.0354 17.9979 11.94 16.641 11.94C15.9626 11.94 15.3972 11.7138 15.058 11.2615C14.7188 10.8093 14.6057 10.2439 14.7187 9.67851C14.9449 8.32161 15.9626 7.41702 17.3195 7.41702C17.9979 7.41702 18.5633 7.64317 18.9025 8.09546C19.1286 8.43469 19.3548 9.00006 19.2417 9.67851ZM22.4078 5.15553H20.1463C19.9202 5.15553 19.8071 5.26861 19.694 5.49475L19.5809 6.1732L19.4679 5.94705C19.0156 5.26861 17.8848 4.92938 16.7541 4.92938C14.1534 4.92938 12.005 6.85165 11.5527 9.56543C11.3265 10.9223 11.6657 12.1661 12.4572 13.0707C13.1357 13.8623 14.1534 14.2015 15.3972 14.2015C17.4325 14.2015 18.5632 12.8446 18.5632 12.8446L18.4502 13.523C18.4502 13.7492 18.5633 13.9753 18.9025 13.9753H20.9378C21.277 13.9753 21.5032 13.7492 21.6163 13.41L22.8601 5.49475C22.8601 5.38168 22.747 5.15553 22.4078 5.15553Z" fill="#263577"/>
<path d="M34.735 5.15552H32.3605C32.1343 5.15552 31.9082 5.26859 31.7951 5.49474L28.629 10.2439L27.2721 5.72089C27.159 5.38167 26.9329 5.26859 26.5937 5.26859H24.3322C24.106 5.26859 23.8799 5.49474 23.993 5.83396L26.5937 13.2969L24.2191 16.6891C23.9929 16.9152 24.2191 17.3676 24.5583 17.3676H26.9329C27.1591 17.3676 27.3852 17.2545 27.4983 17.0283L35.1873 5.83396C35.3004 5.49474 35.0743 5.15552 34.735 5.15552Z" fill="#263577"/>
<path d="M42.9895 5.15548C42.7633 6.8516 41.4064 6.8516 40.1626 6.8516H39.4842L40.0495 3.57244C40.0495 3.34629 40.2757 3.23322 40.5019 3.23322H40.8411C41.7457 3.23322 42.5372 3.23322 42.9895 3.68552C43.1025 4.13781 43.1025 4.59011 42.9895 5.15548ZM42.4241 0.632507H37.5619C37.2227 0.632507 36.9965 0.858656 36.8835 1.19788L34.9612 13.6361C34.9612 13.8622 35.0743 14.0884 35.4135 14.0884H37.9011C38.1273 14.0884 38.3534 13.9753 38.3534 13.6361L38.9188 10.1308C38.9188 9.79153 39.258 9.56538 39.5972 9.56538H41.1803C44.3464 9.56538 46.1556 7.98234 46.7209 4.92933C46.9471 3.57244 46.7209 2.55477 46.1556 1.76325C45.364 1.0848 44.1202 0.632507 42.4241 0.632507Z" fill="#2199D6"/>
<path d="M53.7317 9.67851C53.5055 11.0354 52.4879 11.94 51.131 11.94C50.4526 11.94 49.8872 11.7138 49.548 11.2615C49.2087 10.8093 49.0956 10.2439 49.2087 9.67851C49.4349 8.32161 50.4526 7.41702 51.8094 7.41702C52.4879 7.41702 53.0533 7.64317 53.3925 8.09546C53.6186 8.43469 53.8448 9.00006 53.7317 9.67851ZM56.8978 5.15553H54.6363C54.4102 5.15553 54.2971 5.26861 54.184 5.49475L54.0709 6.1732L53.9579 5.94705C53.5056 5.26861 52.3748 4.92938 51.2441 4.92938C48.6434 4.92938 46.495 6.85165 46.0427 9.56543C45.8165 10.9223 46.1557 12.1661 46.9472 13.0707C47.6257 13.8623 48.6434 14.2015 49.8872 14.2015C51.9225 14.2015 53.0532 12.8446 53.0532 12.8446L52.9402 13.523C52.9402 13.7492 53.0533 13.9753 53.3925 13.9753H55.4278C55.767 13.9753 55.9932 13.7492 56.1063 13.41L57.3501 5.49475C57.3501 5.38168 57.1239 5.15553 56.8978 5.15553Z" fill="#2199D6"/>
<path d="M59.6101 0.97173L57.5747 13.6361C57.5747 13.8622 57.6878 14.0884 58.027 14.0884H60.0624C60.4016 14.0884 60.6277 13.8622 60.7408 13.523L62.6631 1.08481C62.6631 0.858658 62.55 0.632507 62.2108 0.632507H59.9493C59.8362 0.632507 59.7231 0.858655 59.6101 0.97173Z" fill="#2199D6"/>
</svg>
