<svg width="39" height="14" viewBox="0 0 39 14" fill="none" xmlns="http://www.w3.org/2000/svg">
<path fill-rule="evenodd" clip-rule="evenodd" d="M9.73392 13.1252H6.4568L3.99935 3.4742C3.88271 3.03025 3.63505 2.63778 3.27075 2.4528C2.36159 1.98794 1.35975 1.61799 0.266846 1.4314V1.05983H5.54604C6.27464 1.05983 6.8211 1.61799 6.91217 2.26621L8.18723 9.22783L11.4628 1.05983H14.6488L9.73392 13.1252ZM16.4702 13.1252H13.3753L15.9238 1.05983H19.0188L16.4702 13.1252ZM23.0245 4.40047C23.1156 3.75063 23.6621 3.37907 24.2996 3.37907C25.3014 3.28578 26.3927 3.47236 27.3035 3.93561L27.8499 1.33788C26.9392 0.966311 25.9373 0.779724 25.0282 0.779724C22.0243 0.779724 19.8385 2.45096 19.8385 4.77043C19.8385 6.53496 21.3868 7.46146 22.4797 8.01961C23.6621 8.57615 24.1174 8.94772 24.0264 9.50426C24.0264 10.3391 23.1156 10.7106 22.2064 10.7106C21.1135 10.7106 20.0206 10.4324 19.0204 9.96751L18.4739 12.5669C19.5668 13.0301 20.7492 13.2167 21.8421 13.2167C25.2103 13.3084 27.3035 11.6387 27.3035 9.13269C27.3035 5.97681 23.0245 5.79183 23.0245 4.40047ZM38.1324 13.1252L35.675 1.05983H33.0354C32.4889 1.05983 31.9425 1.43139 31.7603 1.98794L27.2097 13.1252H30.3958L31.0317 11.3623H34.9464L35.3107 13.1252H38.1324ZM33.4916 4.30781L34.4007 8.85506H31.8522L33.4916 4.30781Z" fill="#172B85"/>
</svg>
