<svg width="160" height="80" viewBox="0 0 160 80" fill="none" xmlns="http://www.w3.org/2000/svg">
<g id="Pieces/Logos">
<g id="Vector">
<path d="M27.7404 36.0942H36.6929V29.1394H44.6526V49.0773H36.6929V41.1187H27.7404V49.0773H19.7751V29.1394H27.7404V36.0942Z" fill="#A7A7A7"/>
<path d="M65.1724 44.5768C67.7661 44.5768 69.2666 43.7716 69.2666 41.2014V29.1394H77.2318V41.5103C77.2318 47.8474 73.3608 49.7778 65.1724 49.7778C56.984 49.7778 53.1129 47.8474 53.1129 41.5103V29.1394H61.0782V41.2014C61.0782 43.7716 62.5786 44.5768 65.1724 44.5768Z" fill="#A7A7A7"/>
<path d="M93.4218 35.4269L102.938 36.8167C106.948 37.4069 109.436 39.249 109.436 42.6244C109.436 47.4834 105.426 49.7723 96.473 49.7723C90.3484 49.7723 83.6549 48.9339 83.627 43.0711H93.2266C93.2545 43.7385 93.5055 44.1852 94.0744 44.4941C94.6657 44.7754 95.5359 44.9133 96.7797 44.9133C99.2619 44.9133 99.9424 44.2459 99.9424 43.2973C99.9424 42.7126 99.5743 42.1225 98.5033 41.957L89.4113 40.6168C85.5179 40.0267 83.9059 37.793 83.9059 35.0022C83.9059 29.8398 89.0209 28.4445 95.5693 28.4445C104.55 28.4445 108.248 30.7609 108.532 34.9801H99.2675C99.2675 34.1694 98.7878 33.662 98.0515 33.3862C97.3487 33.0829 96.4451 32.967 95.5693 32.967C93.1931 32.967 92.3788 33.5517 92.3788 34.39C92.3788 34.9526 92.6298 35.3111 93.4218 35.4269Z" fill="#A7A7A7"/>
<path d="M125.11 36.0942H134.057V29.1394H142.022V49.0773H134.057V41.1187H125.11V49.0773H117.145V29.1394H125.11V36.0942Z" fill="#A7A7A7"/>
</g>
</g>
</svg>
