<svg width="160" height="80" viewBox="0 0 160 80" fill="none" xmlns="http://www.w3.org/2000/svg">
<g id="Pieces/Logos">
<path id="Vector" fill-rule="evenodd" clip-rule="evenodd" d="M113.288 39.1774H108.491C108.491 39.1774 108.424 36.9513 106.199 36.9513C103.988 36.9513 104.029 39.1102 104.029 40.0142V47.0966H98.4663V38.3682C98.4663 38.3682 98.6141 32.0271 106.306 32.0271C106.306 32.0271 111.68 31.3522 113.971 36.7354C113.971 36.7354 115.58 32.0271 122.106 32.0271H128.243C128.243 32.0271 135.762 31.9731 135.762 39.0694H129.732C129.732 39.0694 129.557 37.3154 127.413 37.3154H122.763C122.763 37.3154 119.707 37.0994 119.707 39.5816C119.707 42.0638 121.423 42.2126 123.192 42.2126H140.225V47.0959H121.932C121.932 47.0959 113.288 47.8248 113.288 39.1774ZM82.3182 42.2396H89.2598V47.0959H81.0448C81.0448 47.0959 73.2857 46.7595 73.2857 39.9595C73.2857 33.1464 79.9055 32.0271 82.5994 32.0271H95.8522V47.0966H90.1035V37.3694H82.1435C82.1435 37.3694 79.6518 37.3292 79.6518 39.7574C79.6518 42.1718 81.8761 42.2396 82.3182 42.2396ZM27.5214 37.3424H19.7753V32.0271H30.9386C30.9386 32.0271 34.3029 32.1891 34.3029 35.3593V39.8924L43.0535 32.0271H46.3765C46.3765 32.0271 49.5523 32.0001 49.5523 35.5081V39.9872L58.3972 32.0271H61.9085C61.9085 32.0271 65.125 32.1891 65.125 35.8992V41.5384C65.125 41.5384 65.125 42.0645 65.7011 42.0645H72.6297V47.0966H63.1551C63.1551 47.0966 59.0008 47.5023 59.0008 43.2253V40.2025C59.0008 40.2025 58.974 39.5013 58.3036 40.1755L50.7459 47.0959H47.4085C47.4085 47.0959 43.5623 47.2309 43.5623 43.2516V39.8924C43.5623 39.8924 43.6297 39.2577 43.1064 39.8114L35.2407 47.0959H31.9975C31.9975 47.0959 28.3926 47.4476 28.3926 43.4267V38.0436C28.3926 38.0443 28.4861 37.3424 27.5214 37.3424Z" fill="#A7A7A7"/>
</g>
</svg>
