<svg width="160" height="80" viewBox="0 0 160 80" fill="none" xmlns="http://www.w3.org/2000/svg">
<g id="Pieces/Logos">
<path id="Vector" fill-rule="evenodd" clip-rule="evenodd" d="M42.559 23.7988C36.0079 31.3484 29.7266 40.7105 29.6637 47.7084C29.6391 50.3413 30.4957 52.6399 32.5504 54.3809C35.5073 56.8883 38.7653 57.7725 42.0074 57.7777C46.7452 57.7842 51.4498 55.9085 55.1334 54.4622C61.3371 52.0277 129.913 22.8047 129.913 22.8047C130.575 22.4794 130.451 22.0741 129.623 22.2764C129.289 22.3584 54.967 42.123 54.967 42.123C53.5592 42.5137 52.1046 42.718 50.6416 42.7306C44.9299 42.7638 39.8473 39.6526 39.8884 33.0966C39.9043 30.5312 40.7046 27.4376 42.559 23.7988V23.7988Z" fill="#A7A7A7"/>
</g>
</svg>
