<svg width="160" height="80" viewBox="0 0 160 80" fill="none" xmlns="http://www.w3.org/2000/svg">
<g id="Pieces/Logos">
<g id="Group 74">
<path id="Vector" d="M63.961 51.6191C63.187 51.6002 62.53 50.9736 62.53 50.199L62.5315 24.8889H54.081V52.7877C54.081 54.1557 55.203 55.2708 56.5812 55.2708H71.3514C72.7372 55.2708 73.8462 54.155 73.8462 52.7877V24.8889H65.4026L65.3958 50.199C65.3965 50.9736 64.738 51.6002 63.961 51.6191ZM92.2524 24.8889H79.4646C79.103 24.8895 78.7451 24.9605 78.4113 25.0977C78.0775 25.235 77.7744 25.4358 77.5193 25.6888C77.2642 25.9418 77.0622 26.242 76.9247 26.5721C76.7872 26.9022 76.717 27.2559 76.7181 27.6128V55.2708H85.177V29.9019C85.178 29.7177 85.2158 29.5355 85.2882 29.3657C85.3606 29.1959 85.4662 29.0419 85.599 28.9125C85.7318 28.783 85.8891 28.6807 86.062 28.6113C86.2348 28.5419 86.4199 28.5069 86.6065 28.5082C87.3958 28.5082 88.029 29.1091 88.0474 29.88V55.2716H96.4696V29.8792C96.4818 29.1084 97.1135 28.5074 97.9021 28.5074C98.683 28.5074 99.3285 29.1235 99.3346 29.9011V55.2708H107.794V27.6128C107.795 27.2558 107.725 26.9021 107.587 26.5719C107.449 26.2418 107.247 25.9417 106.992 25.6887C106.736 25.4357 106.433 25.2349 106.099 25.0977C105.765 24.9605 105.407 24.8895 105.045 24.8889H92.2524ZM48.4443 47.6366H39.9074V55.2708H31.4608V24.8889H48.4979C50.0229 24.8889 51.2137 26.1127 51.2137 27.6249V44.8969C51.2148 45.2565 51.144 45.6127 51.0053 45.9452C50.8666 46.2777 50.6627 46.5799 50.4054 46.8345C50.1481 47.089 49.8424 47.2909 49.5059 47.4286C49.1694 47.5662 48.8086 47.6369 48.4443 47.6366ZM42.7732 29.9539C42.7758 29.7662 42.7409 29.5799 42.6704 29.4055C42.6 29.2312 42.4953 29.0723 42.3626 28.9379C42.2298 28.8035 42.0714 28.6963 41.8966 28.6225C41.7218 28.5486 41.5339 28.5095 41.3437 28.5074H39.9074V43.8747H41.3437C42.0879 43.8747 42.7801 43.2903 42.7732 42.447V29.9539Z" fill="#A7A7A7"/>
<path id="Vector_2" d="M120.601 55.4009V47.7876H117.674V55.4009H109.078V27.7967C109.078 26.2897 110.332 25.0781 111.876 25.0781H126.4C126.769 25.0784 127.134 25.149 127.474 25.2859C127.814 25.4227 128.123 25.6231 128.383 25.8756C128.643 26.1282 128.85 26.4278 128.99 26.7575C129.13 27.0871 129.202 27.4403 129.201 27.7967V55.4009H120.601ZM120.601 44.0329V30.07C120.58 29.2984 119.936 28.7047 119.133 28.7047C118.751 28.704 118.383 28.8492 118.11 29.1088C117.837 29.3684 117.68 29.7216 117.674 30.0919V44.0329H120.601Z" fill="#A7A7A7"/>
</g>
</g>
</svg>
