<svg width="160" height="80" viewBox="0 0 160 80" fill="none" xmlns="http://www.w3.org/2000/svg">
<g id="Pieces/Logos">
<path id="Union" fill-rule="evenodd" clip-rule="evenodd" d="M120.672 21.5943C119.905 20.8274 118.837 20.4442 117.851 20.4442H42.4425C41.4698 20.4442 40.4015 20.8686 39.662 21.5943L24.5278 36.7947C22.9669 38.3423 22.9944 40.8626 24.5553 42.4096L39.7032 57.5149C40.429 58.2412 41.4698 58.6651 42.4425 58.6651H117.878C118.837 58.6926 119.905 58.3094 120.672 57.5424L135.819 42.3827C137.339 40.8626 137.339 38.3154 135.819 36.7953L120.672 21.5943ZM119.603 55.3779C118.918 56.0629 118.015 56.3923 117.11 56.3923V56.3929H42.9489C42.0993 56.3642 41.1679 56.0085 40.5109 55.351L27.1577 42.0127C25.8024 40.6569 25.7749 38.4523 27.1308 37.0966L40.484 23.7308C41.141 23.0876 42.0724 22.7176 42.9495 22.7176H117.11C117.987 22.7451 118.918 23.087 119.603 23.7583L132.956 37.1241C133.607 37.7764 133.973 38.6604 133.973 39.5821C133.973 40.5039 133.607 41.3879 132.956 42.0402L119.603 55.3779ZM58.0517 44.5042C59.6753 47.4924 57.7104 50.8382 54.1902 50.8382V50.8376H43.5879C43.0149 50.8094 42.7421 50.5203 42.7147 49.9559V47.1474C42.7157 47.0189 42.742 46.8918 42.792 46.7735C42.8421 46.6553 42.9149 46.5483 43.0063 46.4586C43.0977 46.369 43.2058 46.2986 43.3243 46.2515C43.4429 46.2043 43.5695 46.1814 43.6969 46.184H50.3966C50.9011 46.184 51.0381 45.7844 50.8469 45.4953C50.1191 44.5718 49.1284 43.4552 48.0549 42.2453C45.8476 39.7576 43.2904 36.8755 41.9499 34.4668C40.8587 32.5117 41.7587 28.271 45.2658 28.271H55.4315C55.964 28.271 56.3595 28.7254 56.3869 29.235V32.0303C56.3869 32.6223 56.1415 32.8699 55.5137 32.8976H49.5782C48.923 32.8976 48.8408 33.3934 49.0731 33.641C50.0172 34.7841 51.1182 36.0004 52.2348 37.2337C54.5073 39.744 56.8439 42.3252 58.0517 44.5042ZM65.8979 41.4481V49.9019C65.8979 50.4115 65.4196 50.8382 64.9979 50.8382H60.9178C60.4943 50.8382 60.044 50.4115 60.0166 49.9295L59.9898 29.2356C59.9898 28.6989 60.3442 28.2722 60.9994 28.2446H64.8746C65.4476 28.2446 65.8979 28.6983 65.8979 29.2356V36.2848H70.5099V29.2356C70.5099 28.8089 70.8512 28.2722 71.5469 28.2446H75.4364C76.0773 28.2446 76.4186 28.6983 76.4186 29.2356L76.446 49.9019C76.446 50.4662 75.9957 50.8382 75.4906 50.8382H71.4105C71.0418 50.8382 70.4825 50.3839 70.4825 49.9019V41.4481H65.8979ZM111.364 50.8382H98.6053C98.1276 50.8106 97.6505 50.3009 97.6231 49.9019V29.2356C97.6231 28.7813 98.1276 28.2987 98.6327 28.2716H111.336C111.95 28.2716 112.264 28.616 112.264 29.208V32.0309C112.291 32.5406 111.841 32.8982 111.418 32.8982H103.763V36.8492H108.798C109.303 36.9039 109.726 37.3035 109.698 37.7303V40.5941C109.726 41.0214 109.358 41.5028 108.853 41.4751H103.763V46.1564H111.391C111.922 46.1564 112.319 46.5561 112.319 47.1204V49.9019C112.319 50.59 111.922 50.8106 111.364 50.8382ZM118.732 50.8106H114.966C114.515 50.8106 114.065 50.4662 114.038 49.9295V29.208C114.038 28.616 114.378 28.2987 114.993 28.2716H118.677C119.209 28.2716 119.578 28.6983 119.606 29.208V49.9295C119.606 50.4939 119.237 50.8106 118.732 50.8106ZM78.7791 31.4798C78.5337 36.8511 78.5337 42.231 78.7791 47.6024C78.7791 49.0208 80.3343 50.8659 81.9854 50.8659H92.0015C93.7074 50.8659 95.1268 49.1584 95.1268 47.6024C95.3996 42.1086 95.3996 36.7392 95.1268 31.4521C95.0857 30.0614 93.434 28.2716 92.0015 28.2716H82.0128C80.267 28.3269 78.8339 30.172 78.7791 31.4798ZM88.5355 46.4052C87.4575 46.4599 86.4199 46.4599 85.4103 46.4052C85.0422 46.377 84.6741 46.0332 84.6467 45.3312C84.4281 41.4757 84.3328 37.6209 84.6467 33.7522C84.7015 33.0773 84.988 32.7329 85.4103 32.6776C86.4205 32.5676 87.4848 32.5676 88.5355 32.6499C88.8768 32.6499 89.1496 33.1043 89.1764 33.7516C89.4355 37.6203 89.4355 41.4481 89.1764 45.3306C89.1496 45.8955 88.9858 46.3776 88.5355 46.4052Z" fill="#A7A7A7"/>
</g>
</svg>
